<svg id="visual" viewBox="0 0 1920 1080" width="1920" height="1080" xmlns="http://www.w3.org/2000/svg" xmlns:xlink="http://www.w3.org/1999/xlink" version="1.1"><rect x="0" y="0" width="1920" height="1080" fill="#141414"></rect><defs><linearGradient id="grad1_0" x1="43.8%" y1="0%" x2="100%" y2="100%"><stop offset="14.444444444444446%" stop-color="#c62368" stop-opacity="1"></stop><stop offset="85.55555555555554%" stop-color="#c62368" stop-opacity="1"></stop></linearGradient></defs><defs><linearGradient id="grad1_1" x1="43.8%" y1="0%" x2="100%" y2="100%"><stop offset="14.444444444444446%" stop-color="#c62368" stop-opacity="1"></stop><stop offset="85.55555555555554%" stop-color="#86264a" stop-opacity="1"></stop></linearGradient></defs><defs><linearGradient id="grad1_2" x1="43.8%" y1="0%" x2="100%" y2="100%"><stop offset="14.444444444444446%" stop-color="#4b212e" stop-opacity="1"></stop><stop offset="85.55555555555554%" stop-color="#86264a" stop-opacity="1"></stop></linearGradient></defs><defs><linearGradient id="grad1_3" x1="43.8%" y1="0%" x2="100%" y2="100%"><stop offset="14.444444444444446%" stop-color="#4b212e" stop-opacity="1"></stop><stop offset="85.55555555555554%" stop-color="#141414" stop-opacity="1"></stop></linearGradient></defs><defs><linearGradient id="grad2_0" x1="0%" y1="0%" x2="56.3%" y2="100%"><stop offset="14.444444444444446%" stop-color="#c62368" stop-opacity="1"></stop><stop offset="85.55555555555554%" stop-color="#c62368" stop-opacity="1"></stop></linearGradient></defs><defs><linearGradient id="grad2_1" x1="0%" y1="0%" x2="56.3%" y2="100%"><stop offset="14.444444444444446%" stop-color="#86264a" stop-opacity="1"></stop><stop offset="85.55555555555554%" stop-color="#c62368" stop-opacity="1"></stop></linearGradient></defs><defs><linearGradient id="grad2_2" x1="0%" y1="0%" x2="56.3%" y2="100%"><stop offset="14.444444444444446%" stop-color="#86264a" stop-opacity="1"></stop><stop offset="85.55555555555554%" stop-color="#4b212e" stop-opacity="1"></stop></linearGradient></defs><defs><linearGradient id="grad2_3" x1="0%" y1="0%" x2="56.3%" y2="100%"><stop offset="14.444444444444446%" stop-color="#141414" stop-opacity="1"></stop><stop offset="85.55555555555554%" stop-color="#4b212e" stop-opacity="1"></stop></linearGradient></defs><g transform="translate(1920, 0)"><path d="M0 540C-51 477.3 -102 414.7 -160.7 388C-219.4 361.4 -285.9 370.7 -347.9 347.9C-409.9 325.1 -467.6 270 -498.9 206.6C-530.2 143.3 -535.1 71.6 -540 0L0 0Z" fill="#2f1b21"></path><path d="M0 405C-38.3 358 -76.5 311 -120.5 291C-164.6 271 -214.4 278.1 -260.9 260.9C-307.5 243.8 -350.7 202.5 -374.2 155C-397.6 107.5 -401.3 53.7 -405 0L0 0Z" fill="#68243c"></path><path d="M0 270C-25.5 238.7 -51 207.3 -80.4 194C-109.7 180.7 -142.9 185.4 -173.9 173.9C-205 162.5 -233.8 135 -249.4 103.3C-265.1 71.6 -267.5 35.8 -270 0L0 0Z" fill="#a62659"></path><path d="M0 135C-12.8 119.3 -25.5 103.7 -40.2 97C-54.9 90.3 -71.5 92.7 -87 87C-102.5 81.3 -116.9 67.5 -124.7 51.7C-132.5 35.8 -133.8 17.9 -135 0L0 0Z" fill="#c62368"></path></g><g transform="translate(0, 1080)"><path d="M0 -540C54.5 -486 109 -432.1 167.6 -404.7C226.2 -377.2 289 -376.3 349.3 -349.3C409.6 -322.3 467.5 -269.2 498.9 -206.6C530.3 -144.1 535.1 -72 540 0L0 0Z" fill="#2f1b21"></path><path d="M0 -405C40.9 -364.5 81.7 -324.1 125.7 -303.5C169.7 -282.9 216.7 -282.2 262 -262C307.2 -241.7 350.6 -201.9 374.2 -155C397.7 -108.1 401.4 -54 405 0L0 0Z" fill="#68243c"></path><path d="M0 -270C27.2 -243 54.5 -216 83.8 -202.3C113.1 -188.6 144.5 -188.2 174.7 -174.7C204.8 -161.2 233.8 -134.6 249.4 -103.3C265.1 -72 267.6 -36 270 0L0 0Z" fill="#a62659"></path><path d="M0 -135C13.6 -121.5 27.2 -108 41.9 -101.2C56.6 -94.3 72.2 -94.1 87.3 -87.3C102.4 -80.6 116.9 -67.3 124.7 -51.7C132.6 -36 133.8 -18 135 0L0 0Z" fill="#c62368"></path></g></svg>