<svg id="visual" viewBox="0 0 1920 1080" width="1920" height="1080" xmlns="http://www.w3.org/2000/svg" xmlns:xlink="http://www.w3.org/1999/xlink" version="1.1"><rect x="0" y="0" width="1920" height="1080" fill="#fdfdfd"></rect><defs><linearGradient id="grad1_0" x1="43.8%" y1="0%" x2="100%" y2="100%"><stop offset="14.444444444444446%" stop-color="#c62368" stop-opacity="1"></stop><stop offset="85.55555555555554%" stop-color="#c62368" stop-opacity="1"></stop></linearGradient></defs><defs><linearGradient id="grad1_1" x1="43.8%" y1="0%" x2="100%" y2="100%"><stop offset="14.444444444444446%" stop-color="#c62368" stop-opacity="1"></stop><stop offset="85.55555555555554%" stop-color="#df7897" stop-opacity="1"></stop></linearGradient></defs><defs><linearGradient id="grad1_2" x1="43.8%" y1="0%" x2="100%" y2="100%"><stop offset="14.444444444444446%" stop-color="#f2bbc9" stop-opacity="1"></stop><stop offset="85.55555555555554%" stop-color="#df7897" stop-opacity="1"></stop></linearGradient></defs><defs><linearGradient id="grad1_3" x1="43.8%" y1="0%" x2="100%" y2="100%"><stop offset="14.444444444444446%" stop-color="#f2bbc9" stop-opacity="1"></stop><stop offset="85.55555555555554%" stop-color="#fdfdfd" stop-opacity="1"></stop></linearGradient></defs><defs><linearGradient id="grad2_0" x1="0%" y1="0%" x2="56.3%" y2="100%"><stop offset="14.444444444444446%" stop-color="#c62368" stop-opacity="1"></stop><stop offset="85.55555555555554%" stop-color="#c62368" stop-opacity="1"></stop></linearGradient></defs><defs><linearGradient id="grad2_1" x1="0%" y1="0%" x2="56.3%" y2="100%"><stop offset="14.444444444444446%" stop-color="#df7897" stop-opacity="1"></stop><stop offset="85.55555555555554%" stop-color="#c62368" stop-opacity="1"></stop></linearGradient></defs><defs><linearGradient id="grad2_2" x1="0%" y1="0%" x2="56.3%" y2="100%"><stop offset="14.444444444444446%" stop-color="#df7897" stop-opacity="1"></stop><stop offset="85.55555555555554%" stop-color="#f2bbc9" stop-opacity="1"></stop></linearGradient></defs><defs><linearGradient id="grad2_3" x1="0%" y1="0%" x2="56.3%" y2="100%"><stop offset="14.444444444444446%" stop-color="#fdfdfd" stop-opacity="1"></stop><stop offset="85.55555555555554%" stop-color="#f2bbc9" stop-opacity="1"></stop></linearGradient></defs><g transform="translate(1920, 0)"><path d="M0 540C-55.1 495.1 -110.3 450.1 -178.3 430.5C-246.4 410.9 -327.4 416.6 -381.8 381.8C-436.2 347 -464 271.7 -486 201.3C-507.9 130.9 -523.9 65.4 -540 0L0 0Z" fill="#f8dce2"></path><path d="M0 405C-41.3 371.3 -82.7 337.6 -133.7 322.9C-184.8 308.2 -245.6 312.5 -286.4 286.4C-327.2 260.3 -348 203.8 -364.5 151C-380.9 98.2 -393 49.1 -405 0L0 0Z" fill="#e99aaf"></path><path d="M0 270C-27.6 247.5 -55.1 225.1 -89.2 215.3C-123.2 205.5 -163.7 208.3 -190.9 190.9C-218.1 173.5 -232 135.8 -243 100.6C-253.9 65.4 -262 32.7 -270 0L0 0Z" fill="#d3537f"></path><path d="M0 135C-13.8 123.8 -27.6 112.5 -44.6 107.6C-61.6 102.7 -81.9 104.2 -95.5 95.5C-109.1 86.8 -116 67.9 -121.5 50.3C-127 32.7 -131 16.4 -135 0L0 0Z" fill="#c62368"></path></g><g transform="translate(0, 1080)"><path d="M0 -540C56.6 -480.7 113.3 -421.3 157.7 -380.6C202 -340 234.2 -318 297 -297C359.8 -276 453.3 -256 498.9 -206.6C544.5 -157.3 542.3 -78.7 540 0L0 0Z" fill="#f8dce2"></path><path d="M0 -405C42.5 -360.5 85 -316 118.2 -285.5C151.5 -255 175.6 -238.5 222.7 -222.7C269.8 -207 340 -192 374.2 -155C408.4 -118 406.7 -59 405 0L0 0Z" fill="#e99aaf"></path><path d="M0 -270C28.3 -240.3 56.6 -210.7 78.8 -190.3C101 -170 117.1 -159 148.5 -148.5C179.9 -138 226.6 -128 249.4 -103.3C272.3 -78.7 271.1 -39.3 270 0L0 0Z" fill="#d3537f"></path><path d="M0 -135C14.2 -120.2 28.3 -105.3 39.4 -95.2C50.5 -85 58.5 -79.5 74.2 -74.2C89.9 -69 113.3 -64 124.7 -51.7C136.1 -39.3 135.6 -19.7 135 0L0 0Z" fill="#c62368"></path></g></svg>