<svg id="visual" viewBox="0 0 1920 1080" width="1920" height="1080" xmlns="http://www.w3.org/2000/svg" xmlns:xlink="http://www.w3.org/1999/xlink" version="1.1"><rect x="0" y="0" width="1920" height="1080" fill="#fdfdfd"></rect><path d="M0 316L45.7 312.8C91.3 309.7 182.7 303.3 274.2 323.7C365.7 344 457.3 391 548.8 409C640.3 427 731.7 416 823 399.5C914.3 383 1005.7 361 1097 355.7C1188.3 350.3 1279.7 361.7 1371.2 363C1462.7 364.3 1554.3 355.7 1645.8 346.5C1737.3 337.3 1828.7 327.7 1874.3 322.8L1920 318L1920 0L1874.3 0C1828.7 0 1737.3 0 1645.8 0C1554.3 0 1462.7 0 1371.2 0C1279.7 0 1188.3 0 1097 0C1005.7 0 914.3 0 823 0C731.7 0 640.3 0 548.8 0C457.3 0 365.7 0 274.2 0C182.7 0 91.3 0 45.7 0L0 0Z" fill="#fa7268"></path><path d="M0 300L45.7 295.7C91.3 291.3 182.7 282.7 274.2 282.7C365.7 282.7 457.3 291.3 548.8 304C640.3 316.7 731.7 333.3 823 330C914.3 326.7 1005.7 303.3 1097 294.3C1188.3 285.3 1279.7 290.7 1371.2 280.5C1462.7 270.3 1554.3 244.7 1645.8 232.7C1737.3 220.7 1828.7 222.3 1874.3 223.2L1920 224L1920 0L1874.3 0C1828.7 0 1737.3 0 1645.8 0C1554.3 0 1462.7 0 1371.2 0C1279.7 0 1188.3 0 1097 0C1005.7 0 914.3 0 823 0C731.7 0 640.3 0 548.8 0C457.3 0 365.7 0 274.2 0C182.7 0 91.3 0 45.7 0L0 0Z" fill="#ef5f67"></path><path d="M0 268L45.7 257.5C91.3 247 182.7 226 274.2 222.8C365.7 219.7 457.3 234.3 548.8 232.2C640.3 230 731.7 211 823 215.8C914.3 220.7 1005.7 249.3 1097 243.7C1188.3 238 1279.7 198 1371.2 192.5C1462.7 187 1554.3 216 1645.8 222.2C1737.3 228.3 1828.7 211.7 1874.3 203.3L1920 195L1920 0L1874.3 0C1828.7 0 1737.3 0 1645.8 0C1554.3 0 1462.7 0 1371.2 0C1279.7 0 1188.3 0 1097 0C1005.7 0 914.3 0 823 0C731.7 0 640.3 0 548.8 0C457.3 0 365.7 0 274.2 0C182.7 0 91.3 0 45.7 0L0 0Z" fill="#e34c67"></path><path d="M0 147L45.7 147.8C91.3 148.7 182.7 150.3 274.2 151.2C365.7 152 457.3 152 548.8 160.2C640.3 168.3 731.7 184.7 823 180.3C914.3 176 1005.7 151 1097 136.2C1188.3 121.3 1279.7 116.7 1371.2 117.5C1462.7 118.3 1554.3 124.7 1645.8 130C1737.3 135.3 1828.7 139.7 1874.3 141.8L1920 144L1920 0L1874.3 0C1828.7 0 1737.3 0 1645.8 0C1554.3 0 1462.7 0 1371.2 0C1279.7 0 1188.3 0 1097 0C1005.7 0 914.3 0 823 0C731.7 0 640.3 0 548.8 0C457.3 0 365.7 0 274.2 0C182.7 0 91.3 0 45.7 0L0 0Z" fill="#d53867"></path><path d="M0 128L45.7 121.8C91.3 115.7 182.7 103.3 274.2 99.2C365.7 95 457.3 99 548.8 93.8C640.3 88.7 731.7 74.3 823 69.3C914.3 64.3 1005.7 68.7 1097 76.7C1188.3 84.7 1279.7 96.3 1371.2 106.2C1462.7 116 1554.3 124 1645.8 120C1737.3 116 1828.7 100 1874.3 92L1920 84L1920 0L1874.3 0C1828.7 0 1737.3 0 1645.8 0C1554.3 0 1462.7 0 1371.2 0C1279.7 0 1188.3 0 1097 0C1005.7 0 914.3 0 823 0C731.7 0 640.3 0 548.8 0C457.3 0 365.7 0 274.2 0C182.7 0 91.3 0 45.7 0L0 0Z" fill="#c62368"></path></svg>