<svg id="visual" viewBox="0 0 1920 1080" width="1920" height="1080" xmlns="http://www.w3.org/2000/svg" xmlns:xlink="http://www.w3.org/1999/xlink" version="1.1"><rect x="0" y="0" width="1920" height="1080" fill="#131516"></rect><path d="M0 762L45.7 765.2C91.3 768.3 182.7 774.7 274.2 754.3C365.7 734 457.3 687 548.8 669C640.3 651 731.7 662 823 678.5C914.3 695 1005.7 717 1097 722.3C1188.3 727.7 1279.7 716.3 1371.2 715C1462.7 713.7 1554.3 722.3 1645.8 731.5C1737.3 740.7 1828.7 750.3 1874.3 755.2L1920 760L1920 1081L1874.3 1081C1828.7 1081 1737.3 1081 1645.8 1081C1554.3 1081 1462.7 1081 1371.2 1081C1279.7 1081 1188.3 1081 1097 1081C1005.7 1081 914.3 1081 823 1081C731.7 1081 640.3 1081 548.8 1081C457.3 1081 365.7 1081 274.2 1081C182.7 1081 91.3 1081 45.7 1081L0 1081Z" fill="#fa7268"></path><path d="M0 778L45.7 782.3C91.3 786.7 182.7 795.3 274.2 795.3C365.7 795.3 457.3 786.7 548.8 774C640.3 761.3 731.7 744.7 823 748C914.3 751.3 1005.7 774.7 1097 783.7C1188.3 792.7 1279.7 787.3 1371.2 797.5C1462.7 807.7 1554.3 833.3 1645.8 845.3C1737.3 857.3 1828.7 855.7 1874.3 854.8L1920 854L1920 1081L1874.3 1081C1828.7 1081 1737.3 1081 1645.8 1081C1554.3 1081 1462.7 1081 1371.2 1081C1279.7 1081 1188.3 1081 1097 1081C1005.7 1081 914.3 1081 823 1081C731.7 1081 640.3 1081 548.8 1081C457.3 1081 365.7 1081 274.2 1081C182.7 1081 91.3 1081 45.7 1081L0 1081Z" fill="#ef5f67"></path><path d="M0 810L45.7 820.5C91.3 831 182.7 852 274.2 855.2C365.7 858.3 457.3 843.7 548.8 845.8C640.3 848 731.7 867 823 862.2C914.3 857.3 1005.7 828.7 1097 834.3C1188.3 840 1279.7 880 1371.2 885.5C1462.7 891 1554.3 862 1645.8 855.8C1737.3 849.7 1828.7 866.3 1874.3 874.7L1920 883L1920 1081L1874.3 1081C1828.7 1081 1737.3 1081 1645.8 1081C1554.3 1081 1462.7 1081 1371.2 1081C1279.7 1081 1188.3 1081 1097 1081C1005.7 1081 914.3 1081 823 1081C731.7 1081 640.3 1081 548.8 1081C457.3 1081 365.7 1081 274.2 1081C182.7 1081 91.3 1081 45.7 1081L0 1081Z" fill="#e34c67"></path><path d="M0 931L45.7 930.2C91.3 929.3 182.7 927.7 274.2 926.8C365.7 926 457.3 926 548.8 917.8C640.3 909.7 731.7 893.3 823 897.7C914.3 902 1005.7 927 1097 941.8C1188.3 956.7 1279.7 961.3 1371.2 960.5C1462.7 959.7 1554.3 953.3 1645.8 948C1737.3 942.7 1828.7 938.3 1874.3 936.2L1920 934L1920 1081L1874.3 1081C1828.7 1081 1737.3 1081 1645.8 1081C1554.3 1081 1462.7 1081 1371.2 1081C1279.7 1081 1188.3 1081 1097 1081C1005.7 1081 914.3 1081 823 1081C731.7 1081 640.3 1081 548.8 1081C457.3 1081 365.7 1081 274.2 1081C182.7 1081 91.3 1081 45.7 1081L0 1081Z" fill="#d53867"></path><path d="M0 950L45.7 956.2C91.3 962.3 182.7 974.7 274.2 978.8C365.7 983 457.3 979 548.8 984.2C640.3 989.3 731.7 1003.7 823 1008.7C914.3 1013.7 1005.7 1009.3 1097 1001.3C1188.3 993.3 1279.7 981.7 1371.2 971.8C1462.7 962 1554.3 954 1645.8 958C1737.3 962 1828.7 978 1874.3 986L1920 994L1920 1081L1874.3 1081C1828.7 1081 1737.3 1081 1645.8 1081C1554.3 1081 1462.7 1081 1371.2 1081C1279.7 1081 1188.3 1081 1097 1081C1005.7 1081 914.3 1081 823 1081C731.7 1081 640.3 1081 548.8 1081C457.3 1081 365.7 1081 274.2 1081C182.7 1081 91.3 1081 45.7 1081L0 1081Z" fill="#c62368"></path></svg>