 <svg  version="1.0" xmlns="http://www.w3.org/2000/svg"  width="444.000000pt" height="483.000000pt" viewBox="0 0 444.000000 483.000000"  preserveAspectRatio="xMidYMid meet">  <g transform="translate(0.000000,483.000000) scale(0.100000,-0.100000)" fill="#eeeeee" stroke="none"> <path d="M0 2415 l0 -2415 2220 0 2220 0 0 2415 0 2415 -2220 0 -2220 0 0 -2415z m1356 2159 c19 -9 48 -32 64 -52 28 -34 28 -34 87 -27 103 14 138 0 173 -70 20 -41 31 -51 54 -53 42 -5 74 -30 97 -73 38 -76 16 -155 -60 -206 -48 -32 -94 -29 -171 12 l-65 35 -30 -29 c-71 -66 -129 -87 -197 -72 -45 10 -75 37 -89 78 -12 37 -42 45 -58 15 -16 -30 -97 -65 -136 -58 -41 8 -95 59 -95 89 0 40 -15 52 -45 39 -82 -37 -171 4 -182 85 -12 87 38 137 129 131 l51 -3 22 54 c13 30 35 65 49 78 35 30 95 30 146 2 l38 -22 32 23 c56 40 132 50 186 24z m-662 -384 c45 -38 71 -47 151 -52 32 -3 44 -9 60 -34 36 -56 63 -69 141 -69 54 0 77 4 91 18 27 24 45 21 74 -9 29 -32 94 -63 130 -64 40 0 121 30 160 62 41 31 64 35 94 15 42 -28 101 -38 150 -26 56 14 130 83 140 131 10 47 23 58 66 58 48 0 265 -52 334 -80 86 -36 93 -45 70 -94 -54 -113 -259 -194 -414 -163 -36 7 -55 7 -63 -1 -7 -7 -3 -12 13 -17 59 -18 139 -110 139 -159 0 -8 16 -28 35 -43 19 -16 44 -48 55 -70 11 -23 24 -44 28 -47 5 -3 33 4 63 16 64 24 135 26 206 5 87 -26 131 -63 165 -139 9 -21 23 -38 31 -38 8 0 33 22 55 49 46 55 97 83 187 106 74 19 103 19 185 0 84 -20 121 -40 149 -81 26 -38 32 -39 116 -19 75 18 173 18 245 1 113 -28 166 -72 199 -168 36 -105 41 -111 109 -134 34 -12 73 -29 86 -37 32 -21 96 -100 96 -119 0 -7 5 -19 12 -26 18 -18 27 -102 17 -157 -9 -46 -7 -52 21 -90 58 -78 72 -121 73 -225 1 -112 -14 -153 -86 -242 -26 -31 -47 -63 -47 -70 0 -7 8 -27 18 -43 28 -45 45 -128 37 -177 -14 -87 -42 -127 -122 -182 -24 -16 -43 -36 -43 -45 0 -9 7 -47 17 -84 15 -65 15 -72 -1 -125 -15 -47 -30 -68 -87 -123 l-69 -66 27 -64 c33 -82 38 -208 9 -281 -22 -57 -18 -116 18 -248 33 -119 37 -275 9 -308 -23 -27 -111 -52 -180 -52 -66 0 -137 32 -129 58 2 9 9 62 16 117 9 81 19 115 51 181 33 69 39 90 39 145 -1 35 -7 89 -14 119 -13 52 -19 68 -52 147 -8 17 -14 42 -14 55 0 39 -29 69 -95 99 -34 15 -83 44 -109 63 -25 20 -51 36 -56 36 -6 0 -10 -58 -10 -150 0 -111 -4 -160 -15 -187 -19 -45 -19 -161 -1 -210 25 -66 46 -192 46 -279 0 -111 -4 -114 -165 -114 -174 0 -165 -5 -165 98 0 87 22 205 44 232 20 25 46 92 55 145 12 66 -7 189 -44 280 -39 99 -52 111 -133 118 -37 3 -86 13 -108 23 l-42 16 -53 -40 c-81 -61 -179 -96 -300 -109 -64 -6 -188 18 -251 49 -60 29 -63 27 -82 -69 -9 -49 -23 -117 -30 -153 -43 -196 -44 -233 -12 -405 9 -49 16 -131 16 -182 0 -83 -2 -95 -24 -120 -24 -28 -25 -28 -143 -27 -122 1 -169 12 -180 40 -11 30 46 242 88 328 55 111 61 200 28 416 -11 74 -23 154 -26 177 -8 61 -19 67 -102 54 -38 -6 -88 -11 -109 -11 -22 0 -44 -6 -50 -13 -12 -14 -18 -183 -13 -397 3 -109 -1 -161 -13 -210 -9 -39 -16 -108 -16 -171 0 -96 -2 -107 -22 -126 -28 -26 -147 -38 -248 -26 l-65 8 3 75 c3 85 25 173 59 243 70 139 72 291 7 522 -9 33 -22 82 -30 109 -20 70 -39 96 -72 96 -16 0 -53 7 -83 16 -149 44 -289 162 -355 299 -35 75 -38 86 -38 175 0 80 4 102 23 138 l23 42 -56 67 c-91 106 -126 192 -126 312 0 64 9 103 37 170 12 30 12 36 -4 58 -44 61 -53 80 -58 118 -5 28 -1 53 13 86 23 54 52 77 105 86 20 3 37 11 37 18 0 7 -17 25 -37 41 -87 66 -125 124 -142 219 -15 78 0 140 51 219 l39 60 -25 57 c-30 66 -32 101 -8 146 22 41 57 68 109 83 52 16 70 5 78 -49 4 -20 12 -63 20 -96 7 -33 21 -96 30 -140 9 -44 23 -102 31 -129 8 -26 14 -53 14 -59 0 -7 15 -41 32 -77 85 -170 292 -286 450 -250 66 14 109 35 173 81 125 92 167 163 231 394 9 33 22 80 29 105 8 25 21 74 30 110 25 95 44 147 60 160 19 16 10 30 -19 30 -31 0 -48 -22 -57 -73 -4 -23 -14 -64 -22 -92 -8 -27 -25 -84 -36 -125 -12 -41 -28 -97 -37 -125 -8 -27 -19 -66 -23 -85 -45 -193 -238 -350 -414 -338 -121 8 -266 110 -322 225 -10 21 -22 46 -27 57 -5 10 -13 39 -18 65 -5 25 -13 64 -18 86 -6 22 -18 76 -27 120 -9 44 -23 107 -31 140 -7 33 -16 77 -20 98 -4 21 -13 41 -22 44 -8 4 -43 -1 -78 -10 -176 -47 -369 12 -447 136 -29 45 -19 76 28 93 22 8 60 22 85 31 78 27 236 58 317 62 24 1 43 -9 77 -39z"/> <path d="M848 3953 c-20 -5 -33 -42 -24 -71 14 -44 88 -44 99 0 7 23 -8 68 -22 68 -5 0 -15 2 -23 4 -7 2 -21 2 -30 -1z"/> <path d="M1572 3930 c-20 -33 -14 -58 19 -75 28 -15 33 -15 55 0 26 16 31 44 14 76 -15 26 -71 26 -88 -1z"/> <path d="M1090 3398 c0 -20 15 -39 41 -52 13 -6 29 -26 35 -45 13 -40 27 -49 68 -46 22 2 32 8 34 21 8 52 15 65 37 74 32 12 52 48 30 56 -8 4 -22 0 -31 -7 -9 -7 -24 -18 -34 -24 -10 -5 -27 -15 -38 -22 -16 -10 -23 -9 -42 7 -13 11 -29 20 -37 20 -7 0 -16 7 -19 15 -7 18 -44 20 -44 3z"/> </g> </svg> 